<svg xmlns="http://www.w3.org/2000/svg" width="89" height="60" viewBox="0 0 89 60">
    <path fill="#191919" fill-rule="evenodd" d="M12.31 54.946l-.658 3.17c-.037.15-.065.333-.062.495.006.648.505.883 1.044.883.867 0 1.654-.781 1.91-2.031l.52-2.517h.601l-1.014 4.91h-.555l.165-.892h-.019c-.369.578-1.013 1.036-1.75 1.036-.86 0-1.494-.382-1.504-1.324 0-.152.028-.352.072-.576l.65-3.154h.6zm15.725-1.485l-.303 1.485h.986l-.088.504h-1.007l-.645 3.15c-.05.23-.067.314-.064.468.002.171.091.34.317.34.24 0 .47-.02.708-.056l-.102.523c-.199.023-.41.04-.61.04-.45 0-.909-.113-.915-.705 0-.105.017-.285.06-.505l.65-3.255h-.892l.114-.504h.889l.298-1.485h.604zM5.967 53.06l-.118.552h-3.92l-.503 2.454h3.663l-.12.555H1.319l-.55 2.686h4.016l-.118.549H0l1.389-6.796h4.578zM38.084 0c-.273.124-.543.252-.814.385-3.634 1.767-6.97 4.154-9.917 7.088-3.091 3.08-5.57 6.455-7.363 10.037-1.736 3.467-2.788 7.028-3.126 10.585-.685 7.204 1.644 13.866 6.551 18.751 1.02 1.016 2.143 1.916 3.362 2.69h-8.684c-1.948-2.194-3.481-4.671-4.566-7.386-1.256-3.139-1.892-6.532-1.892-10.09 0-4.627 1.061-9.326 3.15-13.964 2.171-4.83 5.356-9.352 9.463-13.441C25.966 2.942 27.786 1.39 29.69 0zM3.644 41.932c.349 1.352.784 2.673 1.303 3.965.503 1.253 1.08 2.467 1.733 3.64H2.079zM26.988 0c-1.349 1.083-2.653 2.248-3.905 3.497-4.248 4.232-7.547 8.916-9.802 13.926-2.184 4.851-3.293 9.779-3.293 14.638 0 3.766.676 7.366 2.008 10.694.981 2.452 2.303 4.723 3.948 6.782H8.58c-.81-1.358-1.513-2.775-2.104-4.248-.964-2.398-1.622-4.916-1.975-7.528l4.992-24.272c2.44-4.508 5.653-8.755 9.577-12.663.281-.279.563-.553.847-.826zm25.24 9.522c2.092.525 3.951 1.555 5.444 3.045 5.732 5.71 4.647 15.394-2.521 22.53-2.761 2.752-6.02 4.663-9.322 5.537l.626-3.042c2.564-.767 5.009-2.238 7.058-4.278 3.262-3.246 5.057-7.04 5.057-10.677 0-2.907-1.103-5.54-3.192-7.618-1.06-1.055-2.353-1.85-3.799-2.347zm-.98 4.762c1.123.418 2.122 1.053 2.967 1.893 1.77 1.766 2.707 3.997 2.707 6.46 0 3.202-1.624 6.58-4.574 9.518-1.656 1.65-3.56 2.849-5.51 3.573l.532-2.59c1.392-.596 2.712-1.475 3.823-2.582 1.832-1.824 2.94-4.095 3.125-6.391.185-2.314-.564-4.437-2.117-5.984-.448-.447-.96-.823-1.52-1.129zm-.918 4.473c.252.173.488.368.707.585 1.204 1.2 1.786 2.866 1.64 4.69-.153 1.91-1.093 3.814-2.648 5.363-.675.673-1.434 1.246-2.24 1.706zM47.202 0l-.536 2.603c-5.745.833-11.343 3.729-15.847 8.21-.233.233-.46.467-.683.7H25.89c.817-.987 1.692-1.95 2.629-2.882C32.705 4.462 37.599 1.562 42.572 0h4.63zM17.573 0c-2.703 2.735-5.072 5.625-7.085 8.653L12.268 0zM7.503 59.494c-.909 0-1.338-.628-1.346-1.465-.011-1.2.69-2.722 2.077-2.722.88 0 1.383.563 1.392 1.418.013 1.214-.74 2.769-2.123 2.769zm3.522-6.434l-1.397 6.796h-.583l.212-.887h-.021C8.82 59.618 8.318 60 7.449 60c-1.265 0-1.881-.807-1.893-2.008-.014-1.506 1.01-3.19 2.667-3.19.774 0 1.387.294 1.615 1.068h.02l.563-2.81h.604zM54.23 54.8c1.034 0 1.787.449 1.777 1.583h-.605c.046-.752-.487-1.077-1.166-1.077-.523 0-1.221.163-1.214.837.006.457.494.685 1.052.907.679.264 1.609.54 1.62 1.445C55.7 59.598 54.653 60 53.718 60c-.948 0-1.917-.515-1.873-1.74h.607c-.006.948.707 1.236 1.402 1.236.535 0 1.241-.277 1.236-.903-.007-.64-.688-.84-1.34-1.086-.66-.258-1.326-.553-1.333-1.364-.01-.95 1.02-1.343 1.812-1.343zm-35.546.002c1.07 0 1.886.533 1.86 1.674h-.602c.04-.73-.49-1.169-1.198-1.169-1.443 0-2.118 1.387-2.105 2.665.009.874.453 1.522 1.389 1.522.795 0 1.363-.515 1.615-1.228h.6C19.891 59.39 19.15 60 17.957 60c-1.224 0-1.911-.817-1.923-2.028-.014-1.53.957-3.17 2.65-3.17zm39.661-1.34l-.303 1.484h.985l-.09.502h-1.004l-.647 3.15c-.048.233-.062.319-.06.469 0 .172.087.342.317.342.238 0 .466-.017.706-.057l-.1.526c-.201.017-.412.037-.613.037-.446 0-.912-.116-.917-.707 0-.102.02-.286.065-.503l.647-3.257h-.89l.11-.502h.89l.3-1.485h.604zm-27.983 1.484l-1.017 4.91h-.598l1.01-4.91h.605zm18.254 0l-1.016 4.91h-.605l1.017-4.91h.604zm3.15-.067c.106 0 .22 0 .325.008l-.13.6c-.115 0-.227-.009-.343-.009-1.078.02-1.644.885-1.833 1.81l-.533 2.568h-.604l1.017-4.91h.546l-.24 1.131h.019c.374-.705.896-1.207 1.776-1.198zm-2.76-1.82l-.2.962h-.603l.201-.961h.602zm-18.252 0l-.202.962h-.6l.198-.961h.604zm-5.373-40.916l-1.315 6.442h.965c-1.846 3.544-2.82 7.28-2.82 10.982 0 .236.006.468.014.702h-.579l-1.51 7.515h3.913c.849 1.756 1.982 3.36 3.374 4.744 2.706 2.693 6.114 4.384 9.985 4.978l-.425 2.03h-6.72c-2.153-.943-4.062-2.234-5.683-3.847-4.555-4.537-6.714-10.732-6.078-17.44.526-5.53 2.934-11.12 6.879-16.106zm36.423 31.924l-1.128 5.47h-6.96c2.91-1.433 5.652-3.275 8.088-5.47zm1.96-9.516l-1.373 6.66c-.17.175-.342.354-.518.526-3.505 3.493-7.796 6.166-12.341 7.8h-5.534l.436-2.124c5.532-.93 11.057-3.793 15.33-8.048 1.515-1.51 2.853-3.125 4-4.814zm-33.002 3.233c.235.274.478.539.736.796 1.97 1.961 4.34 3.27 6.966 3.864l-.721 3.45c-3.559-.529-6.685-2.066-9.156-4.526-1.068-1.065-1.968-2.27-2.687-3.584zM53.306 4.283c3.241.567 6.194 1.988 8.526 4.31 3.125 3.112 4.808 6.94 4.962 11.217.008.214.011.432.011.649 0 .917-.067 1.855-.207 2.808-.77 5.263-3.61 10.568-8 14.938-3.872 3.856-8.823 6.503-13.806 7.48l.673-3.276c3.854-.844 7.668-2.982 10.85-6.15 7.832-7.799 8.917-18.483 2.525-24.851-1.732-1.722-3.874-2.902-6.28-3.495zm-13.865 33.5l-.004.012-.636 3.043c-2.147-.495-4.098-1.527-5.757-3.054h6.397zM83.8 20.46l-2.365 11.686h-3.798c1.415-3.399 2.332-6.894 2.702-10.387.044-.433.082-.867.11-1.3h3.35zm-11.65 0c-.03.649-.082 1.3-.164 1.958-.401 3.275-1.442 6.563-3.05 9.727h-3.691c1.535-2.79 2.557-5.719 2.984-8.64.151-1.03.222-2.046.222-3.045zm6.648 0c-.024.377-.056.75-.098 1.128-.375 3.55-1.343 7.106-2.851 10.557h-5.08c1.488-3.106 2.458-6.322 2.854-9.53.088-.723.146-1.44.174-2.155zm-48.373-1.874c-1.887 3.142-2.916 6.595-2.916 9.971 0 .58.031 1.151.092 1.714h-3.728c-.008-.233-.014-.467-.014-.701 0-3.702 1.054-7.45 3.042-10.984zm10.115 0c-.351.279-.687.58-1.011.902-2.192 2.185-3.4 4.828-3.4 7.443 0 1.194.266 2.33.766 3.34h-2.931c-.227-.823-.344-1.693-.344-2.606 0-3.106 1.408-6.378 3.882-9.079zm-5.196 0c-.87 1.112-1.587 2.286-2.136 3.52-.819 1.836-1.235 3.707-1.235 5.559 0 .895.102 1.769.298 2.606h-3.016c-.065-.558-.1-1.13-.1-1.714 0-3.383 1.141-6.863 3.214-9.971zM58.998 0c2.613.959 4.993 2.432 7.007 4.437 2.078 2.073 3.655 4.448 4.694 7.075h-2.197l-.776 3.776-.074-.246c-.87-2.84-2.437-5.399-4.656-7.61-1.958-1.95-4.337-3.366-7.065-4.21-.75-.229-1.513-.413-2.293-.55L54.188 0zm12.84 0c3.056 3.275 5.16 7.194 6.225 11.512h-5.605c-1.114-3.08-2.892-5.845-5.289-8.234C65.88 1.994 64.437.899 62.856 0zM46.314 4.324l-.706 3.436c-3.03.546-5.995 1.837-8.657 3.752h-4.493C36.58 7.586 41.5 5.155 46.314 4.324zM45.25 9.502l-.412 2.01h-4.836c1.68-.936 3.45-1.614 5.248-2.01zM81.8 0c.767 1.322 1.437 2.702 2.008 4.14.931 2.347 1.587 4.816 1.956 7.372h-6.006C78.773 7.256 76.841 3.348 74.033 0zm6.634 0l-1.659 8.074c-.371-1.553-.851-3.066-1.437-4.538C84.856 2.32 84.305 1.14 83.688 0h4.746zM24.39 58.056c-.182.858-.793 1.438-1.756 1.438-.573 0-1.099-.255-1.106-.883-.01-1.029 1.203-1.063 1.939-1.125.303-.023.894-.038 1.084-.275l.02.02-.181.825zm-.739-3.254c.668 0 1.713.23 1.721 1.095.006.478-.197 1.22-.291 1.657-.209 1.104-.311 1.36-.308 1.656.003.173.173.199.318.199.087 0 .153-.009.239-.02l-.081.478c-.135.031-.337.048-.499.048-.332 0-.517-.21-.525-.532-.003-.087.004-.184.011-.268l-.014-.019c-.344.57-1.017.904-1.707.904-.897 0-1.58-.402-1.59-1.363-.009-1.038.817-1.369 1.694-1.52.632-.098 1.188-.05 1.572-.143.386-.093.585-.317.579-.959-.006-.584-.585-.708-1.048-.708-.765 0-1.423.284-1.54 1.104h-.601c.153-1.114 1.008-1.609 2.07-1.609zm24.012-1.742l-.105.553h-3.72l-.503 2.453h3.297l-.1.555h-3.314l-.667 3.235h-.649l1.396-6.796h4.365zm-14.89 6.434c-1.003 0-1.487-.648-1.497-1.598-.011-1.15.705-2.589 2.022-2.589.966 0 1.46.63 1.469 1.543.01 1.142-.676 2.644-1.994 2.644m.625-4.692c1.147 0 1.958.716 1.97 1.923.016 1.657-.88 3.275-2.707 3.275-1.267 0-1.975-.817-1.988-2.048-.016-1.609.964-3.15 2.725-3.15zm5.46 0c.86 0 1.495.382 1.503 1.32.002.156-.02.354-.068.586l-.649 3.148h-.603l.66-3.169c.033-.153.061-.332.061-.494-.007-.649-.505-.886-1.04-.886-.871 0-1.656.782-1.912 2.029l-.518 2.52h-.605l1.014-4.91h.553l-.159.894h.015c.366-.583 1.014-1.038 1.749-1.038zm3.994-35.812l-2.283 11.279h-1.764c-.676-.942-1.031-2.08-1.031-3.339 0-2.179 1.037-4.409 2.92-6.283.66-.66 1.391-1.216 2.158-1.657z" opacity=".9"/>
</svg>
