<svg xmlns="http://www.w3.org/2000/svg" width="62" height="58"><g fill="#1B1917" fill-rule="evenodd"><path d="M24.75 55.75c-1.96.4-4.35.87-5.8 1.2 3.18 1.1 6.2 1.27 8.35.83-1-.64-1.85-1.33-2.55-2.03m5.23.75l-7.85-5.2c.5 1.16 2.02 4.13 5.54 6.3.6-.06 1.9-.68 2.3-1.1m-12.96-3.7c-1.9-.1-4.2-.22-5.63-.27 2.68 1.77 5.43 2.66 7.5 2.76-.77-.83-1.38-1.68-1.86-2.5m4.65 1.95l-6-6.67c.18 1.2.88 4.3 3.62 7.14.56.08 1.9-.2 2.38-.47M11.2 48.27c-1.7-.6-3.8-1.3-5.1-1.72 2 2.32 4.3 3.84 6.18 4.48-.5-.96-.84-1.9-1.07-2.76m3.77 2.98l-3.78-7.67c-.16 1.14-.32 4.17 1.45 7.5.5.2 1.8.3 2.32.17M6.5 42.68c-1.54-.98-3.4-2.17-4.56-2.88 1.4 2.73 3.26 4.75 4.94 5.8-.26-1.03-.37-2.02-.4-2.92m2.96 3.78l-1.87-8.34c-.4 1.07-1.28 3.97-.34 7.62.44.33 1.67.73 2.2.72M3.5 35.5C2.3 34.1.9 32.4 0 31.4c.52 3 1.7 5.5 3 7.02.05-1.08.24-2.06.5-2.92M5.17 40l.7-8.53c-.72.9-2.4 3.4-2.6 7.17.32.45 1.38 1.2 1.9 1.35M2.5 28.06c-.8-1.63-1.8-3.6-2.42-4.82-.2 3.06.36 5.76 1.26 7.54.3-1.05.72-1.95 1.16-2.73m.6 4.76l2.67-8.12c-.9.72-3.13 2.76-4.2 6.38.2.5 1.06 1.5 1.52 1.75m.53-12.7c-.3-1.8-.68-3.98-.93-5.32-1.07 2.88-1.3 5.63-.97 7.6.6-.9 1.25-1.65 1.9-2.27m-.8 4.73l4.9-7c-1.07.42-3.8 1.72-5.85 4.88.04.54.57 1.73.94 2.12m3.73-10.94c.1-1.45.2-3.22.26-4.3-1.36 2.03-2.06 4.12-2.16 5.7.64-.58 1.28-1.04 1.9-1.4m-1.5 3.53l5.12-4.52c-.9.13-3.28.63-5.47 2.7-.08.43.12 1.45.33 1.82m5.54-9.15c.4-1.4.9-3.1 1.18-4.15-1.77 1.7-2.9 3.58-3.34 5.1.76-.42 1.48-.73 2.17-.95m-2.24 3.12l5.98-3.3c-.9-.1-3.33-.1-5.9 1.44-.16.4-.2 1.45-.07 1.86m7.33-7.2C16.4 2.98 17.3 1.45 17.82.5c-2.13 1.2-3.7 2.75-4.48 4.13.82-.24 1.6-.36 2.32-.4M12.74 6.7l6.6-1.75c-.87-.3-3.22-.9-6.1-.03-.25.36-.53 1.36-.5 1.8m7.05-3.4c1-.8 2.23-1.82 2.97-2.46-2.17.35-3.97 1.17-5.07 2.08.77.06 1.47.2 2.1.4m17.33 52.4c1.96.4 4.36.88 5.8 1.2-3.18 1.1-6.2 1.28-8.34.84 1-.64 1.83-1.33 2.53-2.03m-5.22.75l7.85-5.2c-.5 1.16-2 4.13-5.54 6.3-.6-.06-1.87-.68-2.3-1.1m12.97-3.7c1.9-.1 4.22-.22 5.64-.27-2.67 1.77-5.4 2.66-7.5 2.76.78-.83 1.4-1.68 1.87-2.5m-4.64 1.95l6-6.67c-.17 1.2-.88 4.3-3.6 7.14-.58.08-1.92-.2-2.4-.47m10.44-6.48c1.7-.6 3.8-1.3 5.1-1.72-2 2.32-4.3 3.84-6.17 4.48.5-.96.84-1.9 1.07-2.76m-3.75 2.98l3.77-7.67c.14 1.14.3 4.17-1.47 7.5-.5.2-1.8.3-2.3.17m8.47-8.57c1.52-.98 3.4-2.17 4.54-2.88-1.4 2.73-3.26 4.75-4.94 5.8.26-1.03.37-2.02.4-2.92m-2.96 3.78l1.87-8.34c.43 1.07 1.3 3.97.35 7.62-.44.33-1.67.73-2.2.72M58.4 35.5c1.16-1.4 2.6-3.1 3.48-4.1-.52 3-1.7 5.5-3 7.02-.05-1.08-.24-2.06-.48-2.92M56.7 40l-.7-8.53c.72.9 2.4 3.4 2.6 7.17-.32.45-1.38 1.2-1.9 1.35m2.68-11.93c.8-1.63 1.8-3.6 2.42-4.82.2 3.06-.36 5.76-1.25 7.54-.32-1.05-.73-1.95-1.17-2.73m-.6 4.76l-2.67-8.12c.92.72 3.15 2.76 4.2 6.38-.2.5-1.04 1.5-1.5 1.75m-.55-12.7c.3-1.8.68-3.98.94-5.32 1.06 2.88 1.3 5.63.95 7.6-.6-.9-1.25-1.65-1.9-2.27m.8 4.73l-4.9-7c1.07.42 3.8 1.72 5.86 4.88-.04.54-.57 1.73-.94 2.12m-3.72-10.94c-.1-1.45-.22-3.22-.27-4.3 1.37 2.03 2.07 4.12 2.17 5.7-.63-.58-1.28-1.04-1.9-1.4m1.5 3.53l-5.1-4.52c.9.13 3.26.63 5.45 2.7.06.43-.13 1.45-.35 1.82M51.3 8.3c-.4-1.4-.9-3.1-1.17-4.15 1.77 1.7 2.9 3.58 3.34 5.1-.74-.42-1.47-.73-2.16-.95m2.25 3.12l-5.97-3.3c.9-.1 3.33-.1 5.9 1.44.17.4.2 1.45.07 1.86m-7.33-7.2C45.48 2.98 44.6 1.45 44.06.5c2.13 1.2 3.7 2.75 4.48 4.13-.82-.24-1.6-.36-2.32-.4m2.93 2.48l-6.6-1.75c.87-.3 3.2-.9 6.08-.03.26.36.54 1.36.52 1.8M42.1 3.3c-1.02-.8-2.25-1.82-3-2.46 2.18.35 3.98 1.17 5.08 2.08-.77.06-1.47.2-2.1.4M18.76 18.36l-.7 3.37c.78-1.18 1.7-2.3 2.73-3.37h-2.03zm.96 7.05c-.8 1.8-1.2 3.64-1.2 5.44 0 1.38.25 2.7.73 3.93.4 1.04 1 2 1.75 2.86h3.33c-.46-.3-.9-.65-1.28-1.04-1.88-1.9-2.78-4.5-2.5-7.3.12-1.4.52-2.78 1.2-4.13.67-1.4 1.62-2.72 2.8-3.92 1.14-1.14 2.42-2.07 3.8-2.76.1-.05.22-.1.32-.15h-3.22c-.73.54-1.42 1.15-2.08 1.8-1.58 1.6-2.8 3.37-3.63 5.25M23.97 22.85h1.62c.08-.1.17-.18.26-.27 1.72-1.74 3.87-2.87 6.07-3.2l.2-1h-1.77c-1.9.6-3.78 1.73-5.4 3.35-.34.37-.68.74-1 1.12m10.15 8.04c1.14-1.15 1.76-2.47 1.76-3.7 0-.97-.36-1.84-1.04-2.53-.32-.33-.7-.57-1.13-.74L33.46 25c.2.13.4.28.58.45.6.6.88 1.43.8 2.33-.06.9-.48 1.78-1.18 2.5-.43.42-.94.77-1.47 1l-.2 1c.74-.28 1.47-.74 2.1-1.4M36.5 27.2c0 1.4-.7 2.88-1.94 4.15-.8.8-1.73 1.36-2.7 1.66l-.25 1.2c1.28-.34 2.52-1.1 3.58-2.16 2.75-2.78 3.17-6.55.97-8.77-.57-.58-1.3-1-2.1-1.2l-.24 1.24c.57.2 1.06.5 1.47.92.8.8 1.22 1.84 1.22 2.97M34.23 27.73c.06-.7-.16-1.36-.62-1.83-.08-.08-.17-.16-.27-.22l-.97 4.8c.3-.18.6-.4.86-.66.6-.6.96-1.35 1-2.1m-18.28 8.53c-.2-.5-.37-1.02-.5-1.55l-.6 2.96h1.76c-.25-.45-.47-.93-.66-1.4m1.93-5.4c0-1.9.43-3.8 1.26-5.7.87-1.95 2.13-3.78 3.76-5.43.47-.48.97-.94 1.5-1.36h-2.72c-.1.1-.22.2-.33.32-1.5 1.5-2.73 3.17-3.67 4.92l-1.9 9.46c.12 1 .38 2 .75 2.93.22.58.5 1.14.8 1.66h2.82c-.63-.8-1.13-1.68-1.5-2.64-.52-1.3-.78-2.7-.78-4.16m5.32-.97c0 .08 0 .17 0 .26h1.42c-.02-.22-.03-.44-.03-.67 0-1.32.38-2.67 1.1-3.9h-1.35c-.76 1.4-1.16 2.85-1.16 4.3m6.38-4.3h-1.16c-.95 1.06-1.5 2.34-1.5 3.55 0 .35.05.7.14 1h1.12c-.2-.38-.3-.83-.3-1.3 0-1 .47-2.04 1.3-2.9.14-.1.27-.23.4-.34m-4.36 3.9c0 .22 0 .44.04.66h1.15c-.06-.33-.1-.67-.1-1 0-.74.16-1.46.47-2.18.2-.48.5-.94.82-1.37h-1.15c-.8 1.22-1.23 2.58-1.23 3.9M35.63 32.5c-1.22 1.23-2.68 2.06-4.16 2.4l-.26 1.26c1.92-.38 3.82-1.4 5.3-2.9 1.7-1.7 2.78-3.78 3.07-5.83.05-.37.08-.73.08-1.1 0-.07 0-.16 0-.24-.06-1.68-.7-3.17-1.9-4.38-.9-.9-2.03-1.46-3.27-1.68l-.3 1.4c.93.24 1.75.7 2.42 1.37 2.45 2.5 2.03 6.66-.97 9.7M38.2 21.27c.84.86 1.44 1.85 1.77 2.96 0 .03.02.06.03.1l.3-1.47h.84c-.4-1.03-1-1.95-1.8-2.76-.77-.78-1.68-1.36-2.68-1.73H34.8l-.2 1.04c.3.07.6.14.88.23 1.05.33 1.96.88 2.7 1.64m3.64 1.58h2.15c-.4-1.68-1.22-3.2-2.4-4.48h-3.43c.6.35 1.16.78 1.65 1.28.9.93 1.6 2 2.02 3.2m-10.3-1.46l.28-1.35c-1.85.33-3.73 1.28-5.32 2.8h1.73c1.03-.74 2.16-1.24 3.33-1.46m-.14.67c-.7.16-1.38.42-2.02.78h1.85l.16-.78zm-10.26 7.3c-.25 2.62.58 5.03 2.32 6.8.63.62 1.36 1.13 2.18 1.5h2.58l.16-.8c-1.48-.23-2.8-.9-3.83-1.94-.53-.53-.96-1.16-1.3-1.84h-1.5l.6-2.94h.2c0-.1 0-.18 0-.27 0-1.46.38-2.9 1.1-4.3h-.38l.5-2.5c-1.5 1.94-2.43 4.12-2.63 6.27M29.16 33.1H26.7c.64.58 1.4.98 2.22 1.18l.24-1.2zm-.37 1.8c-1.02-.23-1.93-.74-2.68-1.5-.1-.1-.2-.2-.3-.3h-1.85c.28.5.62.97 1.03 1.38.95.96 2.15 1.56 3.5 1.77l.3-1.35zm8.5 2.76l.43-2.13c-.93.86-1.98 1.58-3.1 2.13h2.67zm4.4-11.32h-1.42c0 .4-.03.78-.08 1.2-.17 1.12-.56 2.26-1.15 3.35h1.42c.6-1.24 1-2.52 1.17-3.8.03-.25.05-.5.06-.76m3.7-7.97h-2.98c1.08 1.3 1.82 2.83 2.2 4.5h2.3c-.14-1-.4-1.97-.75-2.9-.22-.55-.48-1.08-.77-1.6m.72 0c.24.45.45.9.63 1.38.23.57.4 1.16.55 1.77l.64-3.15h-1.82zm-1.87 7.97h-1.92c0 .28-.03.56-.07.84-.15 1.25-.52 2.5-1.1 3.7h1.96c.57-1.33.95-2.72 1.1-4.1 0-.15.02-.3.03-.44m.6.5c-.15 1.37-.5 2.73-1.05 4.05h1.46l.9-4.56h-1.28c0 .17-.03.34-.04.5m-13.77 10l-.16.82h2.13c1.74-.63 3.4-1.67 4.73-3.03.07-.07.13-.14.2-.2l.52-2.6c-.44.66-.95 1.28-1.53 1.87-1.64 1.66-3.75 2.77-5.88 3.14M29.64 26.4c-.72.74-1.12 1.6-1.12 2.46 0 .5.14.93.4 1.3h.67l.87-4.4c-.3.18-.58.4-.83.65"/></g></svg>