<svg xmlns="http://www.w3.org/2000/svg" xmlns:xlink="http://www.w3.org/1999/xlink" version="1.1" x="0px" y="0px" viewBox="0 0 160 200" style="enable-background:new 0 0 160 160;" xml:space="preserve"><path d="M117.904,103.688V46.341c0-20.9-17.004-37.904-37.904-37.904S42.096,25.441,42.096,46.341v4.48  c-1.768,1.75-2.867,4.176-2.867,6.855v6.089c0,2.679,1.099,5.105,2.867,6.855v33.069c-10.474,5.542-17.182,16.378-17.182,28.618  v15.757c0,1.933,1.567,3.5,3.5,3.5h103.172c1.933,0,3.5-1.567,3.5-3.5v-15.757C135.086,120.067,128.378,109.231,117.904,103.688z   M80,15.437c17.041,0,30.904,13.864,30.904,30.904v54.567l-13.208-4.011V86.59c0.551-0.587,1.082-1.194,1.592-1.816  c0.328,1.592,1.738,2.79,3.427,2.79c1.933,0,3.5-1.567,3.5-3.5V49.816c0.956-0.625,1.591-1.701,1.591-2.928  c0-1.933-1.567-3.5-3.5-3.5c-7.088,0-9.395-5.323-10.679-13.315c-0.262-1.629-1.626-2.854-3.274-2.94  c-1.63-0.089-3.131,0.991-3.561,2.584c-1.616,5.992-3.811,9.802-6.979,11.887c-0.052-2.739-0.603-5.18-0.876-6.231  c-0.333-1.278-1.355-2.259-2.646-2.539c-1.293-0.283-2.628,0.19-3.46,1.215c-3.089,3.808-11.3,9.339-17.136,9.339  c-1.933,0-3.5,1.567-3.5,3.5c0,0.4,0.081,0.779,0.205,1.137h-3.305v-1.684C49.096,29.301,62.959,15.437,80,15.437z M54.784,68.416  h-5.905c-2.564,0-4.65-2.086-4.65-4.65v-6.089c0-2.564,2.086-4.65,4.65-4.65h5.905V68.416z M55.103,73.416  c1.122,4.474,5.165,7.801,9.982,7.801H71.5c0.592,2.389,2.748,4.167,5.317,4.167h4.866c3.024,0,5.484-2.46,5.484-5.484v-2.366  c0-3.024-2.46-5.484-5.484-5.484h-4.866c-2.569,0-4.725,1.778-5.317,4.167h-6.415c-2.923,0-5.301-2.378-5.301-5.301v-20.39  c0-0.206-0.032-0.402-0.079-0.594c4.66-1.001,9.326-3.537,13.005-6.297c-0.091,0.641-0.242,1.176-0.454,1.559  c-0.644,1.164-0.573,2.591,0.183,3.685c0.659,0.954,1.74,1.51,2.879,1.51c0.167,0,0.335-0.012,0.503-0.036  c6.896-1,11.122-4.964,13.745-9.114c1.792,3.656,4.727,7.071,9.649,8.473v20.643l-0.231,0.702  c-2.173,6.591-6.647,12.187-12.599,15.755c-1.702,1.021-3.651,1.561-5.638,1.561h-1.496c-1.986,0-3.935-0.539-5.637-1.561  c-1.502-0.901-2.918-1.94-4.23-3.095h-4.301c-2.359,0-4.563-0.653-6.463-1.77c1.099,1.643,2.332,3.194,3.682,4.634v10.315  l-13.208,4.012V73.416H55.103z M76.333,77.534c0-0.267,0.217-0.484,0.483-0.484h4.866c0.267,0,0.484,0.217,0.484,0.484v2.366  c0,0.267-0.218,0.484-0.484,0.484h-4.866c-0.267,0-0.483-0.217-0.483-0.484V77.534z M80,104.05c-4.772,0-8.879-2.165-10.696-5.256  V92.36c0.238,0.15,0.47,0.309,0.711,0.454c2.789,1.674,5.983,2.558,9.237,2.558h1.496c3.254,0,6.448-0.884,9.237-2.557  c0.241-0.144,0.474-0.299,0.711-0.448v6.427C88.879,101.885,84.772,104.05,80,104.05z M66.217,103.023  c2.331,2.815,5.893,4.874,10.036,5.663l-9.495,9.14l-5.275-13.366L66.217,103.023z M93.783,103.023l4.769,1.449l-5.271,13.355  l-9.502-9.147C87.909,107.885,91.457,105.831,93.783,103.023z M128.086,144.563H31.914v-12.257c0-11.284,7.254-21.069,18.051-24.348  l6.718-2.04l6.794,17.216c0.306,0.775,0.979,1.348,1.794,1.524c0.177,0.039,0.355,0.058,0.532,0.058c0.64,0,1.263-0.246,1.734-0.699  L80.02,112l12.483,12.017c0.471,0.453,1.094,0.699,1.733,0.699c0.177,0,0.355-0.019,0.531-0.058  c0.815-0.177,1.488-0.749,1.794-1.524l6.79-17.205l6.683,2.03c10.797,3.278,18.051,13.063,18.051,24.348V144.563z"/></svg>
