<svg xmlns="http://www.w3.org/2000/svg" viewBox="0 0 60 75" x="0px" y="0px"><g data-name="Outer Lines"><path d="M3,54H6v3a3,3,0,0,0,3,3H45a3,3,0,0,0,3-3V29.933l6.376-5.919,1.36,1.465-5.417,5.03a1,1,0,0,0,1.362,1.465L57.1,26.946a2,2,0,0,0,.106-2.828l-1.36-1.465,2.93-2.721a4,4,0,1,0-5.442-5.863l-3.664,3.4L48,19.017V9a3,3,0,0,0-3-3H42V3a3,3,0,0,0-3-3H11c-.021,0-.04.011-.062.012a1,1,0,0,0-.259.052c-.032.011-.062.019-.093.033a1,1,0,0,0-.293.2l-10,10a1,1,0,0,0-.2.293c-.014.03-.022.062-.033.093a1,1,0,0,0-.052.259C.011,10.96,0,10.979,0,11V51A3,3,0,0,0,3,54Zm43,3a1,1,0,0,1-1,1H9a1,1,0,0,1-1-1V54H39a3,3,0,0,0,3-3V35.5l4-3.713ZM27.4,44.93a11.45,11.45,0,0,1-3.558,1.993,10.888,10.888,0,0,1,2.23-3.424l.057.061Zm1.562-1.257-.7-.754-.821-.884L31.33,37.4l2.54,2.738Zm6.464-4.8L33.773,37.1l-1.068-1.151L50.294,19.616,51.948,21.4l1.068,1.151L40.321,34.333c-.014.013-.028.025-.041.039ZM54.691,15.534A1.963,1.963,0,0,1,56.126,15a2,2,0,0,1,1.286,3.464l-2.931,2.722-1.653-1.782-1.068-1.15ZM45,8a1,1,0,0,1,1,1V20.874l-4,3.713V8ZM40,3V26.444L30.611,35.16a.658.658,0,0,0-.038.054c-.014.014-.034.021-.047.036L29.058,37H7a1,1,0,0,0,0,2H27.379l-1.994,2.376-.134.125a13.113,13.113,0,0,0-3.18,4.5H13a1,1,0,0,0,0,2h9.136a1.863,1.863,0,0,0,.2.3,1.935,1.935,0,0,0,1.43.613,2.182,2.182,0,0,0,.655-.1A13.109,13.109,0,0,0,29.332,45.9l.134-.123L35.958,41.1c.016-.012.023-.031.038-.043s.042-.021.059-.037L40,37.36V51a1,1,0,0,1-1,1H3a1,1,0,0,1-1-1V12H9a3,3,0,0,0,3-3V2H39A1,1,0,0,1,40,3ZM10,3.414V9a1,1,0,0,1-1,1H3.414Z"/><path d="M7,48H9a1,1,0,0,0,0-2H7a1,1,0,0,0,0,2Z"/><path d="M6,18a1,1,0,0,0,1,1H35a1,1,0,0,0,0-2H7A1,1,0,0,0,6,18Z"/><path d="M35,22H30a1,1,0,0,0,0,2h5a1,1,0,0,0,0-2Z"/><path d="M7,24H25a1,1,0,0,0,0-2H7a1,1,0,0,0,0,2Z"/><path d="M12,27H7a1,1,0,0,0,0,2h5a1,1,0,0,0,0-2Z"/><path d="M34,27H17a1,1,0,0,0,0,2H34a1,1,0,0,0,0-2Z"/><path d="M10,32H7a1,1,0,0,0,0,2h3a1,1,0,0,0,0-2Z"/><path d="M28,32H15a1,1,0,0,0,0,2H28a1,1,0,0,0,0-2Z"/><path d="M19,9h8a1,1,0,0,0,0-2H19a1,1,0,0,0,0,2Z"/></g></svg>
