<svg xmlns="http://www.w3.org/2000/svg" viewBox="0 0 64 80" x="0px" y="0px"><title>visa</title><g><path d="M22,19c.686,0,1.318-.035,1.908-.092.057-.59.092-1.222.092-1.908s-.035-1.318-.092-1.908C23.318,15.035,22.686,15,22,15s-1.318.035-1.908.092C20.035,15.682,20,16.314,20,17s.035,1.318.092,1.908C20.682,18.965,21.314,19,22,19Z"/><path d="M28.361,19.9a12.985,12.985,0,0,1-2.687.77,12.985,12.985,0,0,1-.77,2.687A7.039,7.039,0,0,0,28.361,19.9Z"/><path d="M28.361,14.1A7.039,7.039,0,0,0,24.9,10.639a12.985,12.985,0,0,1,.77,2.687A12.985,12.985,0,0,1,28.361,14.1Z"/><path d="M19.1,23.361a12.985,12.985,0,0,1-.77-2.687,12.985,12.985,0,0,1-2.687-.77A7.039,7.039,0,0,0,19.1,23.361Z"/><path d="M26,17c0,.53-.021,1.06-.059,1.583C27.942,18.117,29,17.38,29,17s-1.058-1.117-3.059-1.583C25.979,15.94,26,16.47,26,17Z"/><path d="M20.417,20.941C20.883,22.942,21.62,24,22,24s1.117-1.058,1.583-3.059C23.06,20.979,22.53,21,22,21S20.94,20.979,20.417,20.941Z"/><path d="M23.583,13.059C23.117,11.058,22.38,10,22,10s-1.117,1.058-1.583,3.059C20.94,13.021,21.47,13,22,13S23.06,13.021,23.583,13.059Z"/><path d="M54.79,33.332,42,25.755V44.681l3.7,3.6-1.4,1.434-13.12-12.78a3.071,3.071,0,0,0-4.255-.009,3.006,3.006,0,0,0,0,4.245l7.834,9.178A1,1,0,0,1,35,51v2a7.009,7.009,0,0,0,7,7H60V42.685A10.93,10.93,0,0,0,54.79,33.332ZM57,45.685a10.93,10.93,0,0,0-5.21-9.353l1.053-1.7A12.922,12.922,0,0,1,59,45.685Z"/><path d="M19.1,10.639A7.039,7.039,0,0,0,15.639,14.1a12.985,12.985,0,0,1,2.687-.77A12.985,12.985,0,0,1,19.1,10.639Z"/><path d="M25.513,35.513a5.008,5.008,0,0,1,7.074,0L40,42.733V5a1,1,0,0,0-1-1H5A1,1,0,0,0,4,5V49a1,1,0,0,0,1,1H31.833l-6.374-7.471A4.988,4.988,0,0,1,25.513,35.513ZM33,30H31V28h2ZM31,6h4a3,3,0,0,1,3,3v4H36V9a1,1,0,0,0-1-1H31ZM6,9A3,3,0,0,1,9,6h4V8H9A1,1,0,0,0,8,9v4H6Zm7,39H9a3,3,0,0,1-3-3V41H8v4a1,1,0,0,0,1,1h4Zm0-18H11V28h2ZM22,8a9,9,0,1,1-9,9A9.01,9.01,0,0,1,22,8ZM15,28H29v2H15Z"/><path d="M18,17c0-.53.021-1.06.059-1.583C16.058,15.883,15,16.62,15,17s1.058,1.117,3.059,1.583C18.021,18.06,18,17.53,18,17Z"/></g></svg>
